# xmcd
#
# Track frame offsets:
#	180
#	14808
#	28984
#	45402
#	61836
#	75711
#	91954
#	106305
#	120449
#	131695
#	143317
#	157401
#	175410
#	193766
#	209738
#
# Disc length: 3028 seconds
#
# Revision: 1
# Processed by: cddbd v1.5.1PL0 Copyright (c) Steve Scherf et al.
# Submitted via: audiograbber 1.82.02
#
DISCID=d50bd20f
DTITLE=Various Artist - Sound Choice 8133 Country Hits Vol 13
DYEAR=1900
DGENRE=Karaoke
TTITLE0=McBride and the Ride - Love on the loose, Heart on the run
TTITLE1=Holly Dunn - Are you ever gonna love me
TTITLE2=Toby Keith - Wish I didn't know now
TTITLE3=Confederate Railroad - Elvis and Andy
TTITLE4=John Anderson - I've got it made
TTITLE5=Randy Travis - He walked on water
TTITLE6=George Strait - Let's fall to pieces together
TTITLE7=Conway Twitty - I don't know a thing about love
TTITLE8=Mark Chesnutt - Old flames have new names
TTITLE9=Mel McDaniel - Louisanna Saturday night
TTITLE10=George Strait - Marina Del Ray
TTITLE11=Brother Phelps - Let go
TTITLE12=Judds - One man woman
TTITLE13=Diamond Rio - Oh me, oh my sweet baby
TTITLE14=Dwight Yoakam - A thousand miles from nowhere
EXTD=
EXTT0=
EXTT1=
EXTT2=
EXTT3=
EXTT4=
EXTT5=
EXTT6=
EXTT7=
EXTT8=
EXTT9=
EXTT10=
EXTT11=
EXTT12=
EXTT13=
EXTT14=
PLAYORDER=
